<svg width="40" height="40" fill="none" xmlns="http://www.w3.org/2000/svg"><path d="M0 20C0 8.954 8.954 0 20 0s20 8.954 20 20-8.954 20-20 20S0 31.046 0 20Z" fill="#ABABFA"/><path d="M14.202 22.637a2.107 2.107 0 0 1-2.1 2.103A2.106 2.106 0 0 1 10 22.638a2.105 2.105 0 0 1 2.102-2.1h2.1v2.1Zm1.059 0a2.106 2.106 0 0 1 2.1-2.1 2.106 2.106 0 0 1 2.101 2.1v5.261a2.107 2.107 0 0 1-2.1 2.102 2.106 2.106 0 0 1-2.101-2.102v-5.26Zm2.1-8.435a2.107 2.107 0 0 1-2.1-2.1A2.107 2.107 0 0 1 17.36 10a2.106 2.106 0 0 1 2.101 2.102v2.1h-2.1Zm0 1.059a2.107 2.107 0 0 1 2.101 2.1 2.106 2.106 0 0 1-2.1 2.101h-5.26a2.107 2.107 0 0 1-2.102-2.1 2.106 2.106 0 0 1 2.102-2.101h5.26Zm8.436 2.1a2.106 2.106 0 0 1 2.101-2.1A2.107 2.107 0 0 1 30 17.36a2.106 2.106 0 0 1-2.102 2.101h-2.101v-2.1Zm-1.057 0a2.107 2.107 0 0 1-2.102 2.101 2.105 2.105 0 0 1-2.1-2.1v-5.26a2.106 2.106 0 0 1 2.1-2.102 2.107 2.107 0 0 1 2.102 2.102v5.26Zm-2.102 8.436a2.106 2.106 0 0 1 2.102 2.101A2.106 2.106 0 0 1 22.638 30a2.106 2.106 0 0 1-2.1-2.102v-2.101h2.1Zm0-1.057a2.106 2.106 0 0 1-2.1-2.102 2.105 2.105 0 0 1 2.1-2.1h5.26a2.106 2.106 0 0 1 2.102 2.1 2.107 2.107 0 0 1-2.102 2.102h-5.26Z" fill="#fff"/></svg>