<svg width="40" height="40" fill="none" xmlns="http://www.w3.org/2000/svg"><path d="M0 20C0 8.954 8.954 0 20 0s20 8.954 20 20-8.954 20-20 20S0 31.046 0 20Z" fill="#ABABFA"/><path d="M20 10c-2.717 0-3.056.012-4.123.06-1.065.05-1.79.217-2.427.465a4.898 4.898 0 0 0-1.772 1.153 4.88 4.88 0 0 0-1.153 1.772c-.248.638-.416 1.363-.465 2.428C10.01 16.944 10 17.282 10 20c0 2.717.012 3.056.06 4.123.05 1.064.217 1.79.465 2.427a4.904 4.904 0 0 0 1.153 1.772 4.89 4.89 0 0 0 1.772 1.153c.638.247 1.363.416 2.428.465 1.066.05 1.405.06 4.122.06 2.717 0 3.056-.013 4.123-.06 1.064-.05 1.79-.218 2.427-.465a4.914 4.914 0 0 0 1.772-1.153c.555-.556.899-1.113 1.153-1.772.247-.637.416-1.363.465-2.427.05-1.067.06-1.406.06-4.123 0-2.717-.013-3.056-.06-4.123-.05-1.064-.218-1.79-.465-2.427a4.909 4.909 0 0 0-1.153-1.772 4.873 4.873 0 0 0-1.772-1.153c-.637-.248-1.363-.416-2.427-.465C23.056 10.01 22.717 10 20 10Zm0 1.8c2.67 0 2.988.013 4.042.06.975.045 1.504.207 1.855.345.469.18.8.397 1.152.747.35.35.566.682.747 1.15.136.352.3.881.344 1.856.047 1.055.058 1.372.058 4.042s-.012 2.988-.061 4.042c-.051.975-.214 1.504-.351 1.855-.187.469-.4.8-.75 1.152-.348.35-.686.566-1.15.747-.35.136-.887.3-1.862.344-1.061.047-1.374.058-4.049.058-2.676 0-2.988-.012-4.05-.061-.975-.051-1.513-.214-1.863-.351-.474-.187-.8-.4-1.149-.75a3.037 3.037 0 0 1-.75-1.15c-.137-.35-.299-.887-.35-1.862-.037-1.05-.05-1.374-.05-4.037s.013-2.988.05-4.05c.051-.975.213-1.512.35-1.862.175-.475.4-.8.75-1.15.35-.35.675-.575 1.15-.75.35-.138.875-.3 1.85-.35 1.063-.037 1.375-.05 4.05-.05L20 11.8Zm0 3.065a5.135 5.135 0 1 0 0 10.27 5.135 5.135 0 0 0 0-10.27Zm0 8.468A3.332 3.332 0 0 1 16.667 20 3.332 3.332 0 0 1 20 16.667 3.332 3.332 0 0 1 23.333 20 3.332 3.332 0 0 1 20 23.333Zm6.538-8.67a1.2 1.2 0 0 1-2.4 0 1.2 1.2 0 0 1 2.4 0Z" fill="#fff"/></svg>