<svg width="40" height="40" fill="none" xmlns="http://www.w3.org/2000/svg"><path d="M0 20C0 8.954 8.954 0 20 0s20 8.954 20 20-8.954 20-20 20S0 31.046 0 20Z" fill="#ABABFA"/><g clip-path="url(#a)"><path d="M29.962 13.808a8.333 8.333 0 0 1-2.354.646 4.132 4.132 0 0 0 1.802-2.27c-.793.463-1.67.8-2.606.987a4.1 4.1 0 0 0-6.987 3.735 11.612 11.612 0 0 1-8.45-4.272 4.018 4.018 0 0 0-.555 2.063 4.1 4.1 0 0 0 1.823 3.413 4.087 4.087 0 0 1-1.857-.513v.05a4.103 4.103 0 0 0 3.289 4.023 4.164 4.164 0 0 1-1.844.071 4.114 4.114 0 0 0 3.837 2.848 8.223 8.223 0 0 1-5.085 1.754c-.325 0-.65-.02-.975-.056a11.663 11.663 0 0 0 6.297 1.84c7.546 0 11.666-6.246 11.666-11.654 0-.174 0-.35-.012-.525.8-.575 1.5-1.3 2.05-2.124l-.04-.016Z" fill="#fff"/></g><defs><clipPath id="a"><path fill="#fff" transform="translate(10 10)" d="M0 0h20v20H0z"/></clipPath></defs></svg>